<svg xmlns="http://www.w3.org/2000/svg" width="702" height="182" viewBox="410.5 583 702 182"><g fill="none"><path fill="#fff" d="M411.5 584h700v180h-700z"/><path fill="#fff" d="M413.5 584h696a2 2 0 012 2v176a2 2 0 01-2 2h-696a2 2 0 01-2-2V586a2 2 0 012-2z"/><path stroke="#000" stroke-linecap="round" stroke-linejoin="round" stroke-width="2" d="M413.5 584h696a2 2 0 012 2v176a2 2 0 01-2 2h-696a2 2 0 01-2-2V586a2 2 0 012-2z"/><text fill="#000" transform="translate(438.066 593)"><tspan x="0" y="14" font-family="Arial" font-size="16" font-weight="700">BoundLogger</tspan></text><path fill="#ffc0ff" d="M438.5 623.75h196a2 2 0 012 2v116a2 2 0 01-2 2h-196a2 2 0 01-2-2v-116a2 2 0 012-2z"/><path stroke="#f0f" stroke-linecap="round" stroke-linejoin="round" stroke-width="2" d="M438.5 623.75h196a2 2 0 012 2v116a2 2 0 01-2 2h-196a2 2 0 01-2-2v-116a2 2 0 012-2z"/><text fill="#000" transform="translate(449.027 663.86)"><tspan x="0" y="15" font-family="Andale Mono" font-size="16" font-weight="400">{</tspan> <tspan x="0" y="33" font-family="Andale Mono" font-size="16" font-weight="400"> &quot;user&quot;: &quot;Guido&quot;,</tspan> <tspan x="0" y="51" font-family="Andale Mono" font-size="16" font-weight="400"> &quot;ip&quot;: &quot;8.8.8.8&quot;,</tspan> <tspan x="0" y="69" font-family="Andale Mono" font-size="16" font-weight="400">}</tspan></text><g><text fill="#000" transform="translate(442.744 629.274)"><tspan x="0" y="14" font-family="Arial" font-size="16" font-weight="700">Context</tspan></text></g><g><path fill="#c0ffc0" d="M661.5 623.75h200v120h-200z"/><path stroke="#0f0" stroke-linecap="round" stroke-linejoin="round" stroke-width="2" d="M661.5 623.75h200v120h-200z"/><text fill="#000" transform="translate(674.027 672.86)"><tspan x="0" y="15" font-family="Andale Mono" font-size="16" font-weight="400">- censor_ip()</tspan> <tspan x="0" y="33" font-family="Andale Mono" font-size="16" font-weight="400">- add_timestamp()</tspan> <tspan x="0" y="51" font-family="Andale Mono" font-size="16" font-weight="400">- format_to_json()</tspan></text><g><text fill="#000" transform="translate(666.94 629.274)"><tspan x="0" y="14" font-family="Arial" font-size="16" font-weight="700">Processors</tspan></text></g></g><g><path fill="#ffffc0" d="M886.5 623.75h200v120h-200z"/><path stroke="#fffc00" stroke-linecap="round" stroke-linejoin="round" stroke-width="2" d="M886.5 623.75h200v120h-200z"/><text fill="#000" transform="translate(899.027 690.86)"><tspan x="0" y="15" font-family="Andale Mono" font-size="16" font-weight="400">logging.Logger</tspan></text><g><text fill="#000" transform="translate(892.711 629.274)"><tspan x="0" y="14" font-family="Arial" font-size="16" font-weight="700">Wrapped Logger</tspan></text></g></g></g></svg>